<?xml version="1.0" encoding="UTF-8" standalone="no"?>
<svg
   xmlns:dc="http://purl.org/dc/elements/1.1/"
   xmlns:cc="http://creativecommons.org/ns#"
   xmlns:rdf="http://www.w3.org/1999/02/22-rdf-syntax-ns#"
   xmlns:svg="http://www.w3.org/2000/svg"
   xmlns="http://www.w3.org/2000/svg"
   xmlns:sodipodi="http://sodipodi.sourceforge.net/DTD/sodipodi-0.dtd"
   xmlns:inkscape="http://www.inkscape.org/namespaces/inkscape"
   id="Layer_1"
   data-name="Layer 1"
   viewBox="0 0 512 512"
   width="512"
   height="512"
   version="1.1"
   sodipodi:docname="blood.svg"
   inkscape:version="0.92.4 (unknown)">
  <metadata
     id="metadata11">
    <rdf:RDF>
      <cc:Work
         rdf:about="">
        <dc:format>image/svg+xml</dc:format>
        <dc:type
           rdf:resource="http://purl.org/dc/dcmitype/StillImage" />
      </cc:Work>
    </rdf:RDF>
  </metadata>
  <defs
     id="defs9" />
  <sodipodi:namedview
     pagecolor="#ffffff"
     bordercolor="#666666"
     borderopacity="1"
     objecttolerance="10"
     gridtolerance="10"
     guidetolerance="10"
     inkscape:pageopacity="0"
     inkscape:pageshadow="2"
     inkscape:window-width="744"
     inkscape:window-height="480"
     id="namedview7"
     showgrid="false"
     inkscape:zoom="0.4609375"
     inkscape:cx="256"
     inkscape:cy="256"
     inkscape:window-x="0"
     inkscape:window-y="27"
     inkscape:window-maximized="0"
     inkscape:current-layer="Layer_1" />
  <title
     id="title2">blood supply to heart</title>
  <path
     d="M64,299.816v18.873c0,10.3,7,19.91,17,24.1v19.96a21.568,21.568,0,0,0,15,20.755v53.822a7.051,7.051,0,0,0,.5,2.467l.081.145c.708,28.888,24.662,52.175,53.989,52.175A53.708,53.708,0,0,0,204.145,438.4l.065-81.719a39.55,39.55,0,1,1,79.1-.1l.007,82.923a53.5,53.5,0,0,0,53.4,53.506c29.408,0,53.282-24.092,53.282-53.7V326h4.1A10.925,10.925,0,0,0,405,315V289.39c29-22.7,73.845-66.2,73.845-113.467,0-29.154-18.084-60.14-51.644-60.14a51.7,51.7,0,0,0-44.662,25.71,51.687,51.687,0,0,0-44.67-25.741c-35.7,0-51.729,30.221-51.729,60.171,0,46.609,43.86,89.322,71.86,112.046V315a11.1,11.1,0,0,0,11.1,11H376V439.309a39.355,39.355,0,1,1-78.709.2l.007-82.923a53.544,53.544,0,1,0-107.088.093l-.06,81.719a39.687,39.687,0,0,1-39.567,39.718c-22.053,0-39.993-17.717-39.993-39.493a7.05,7.05,0,0,0-.5-2.467l-.09-.1V383.505a21.568,21.568,0,0,0,15-20.755V343.531a26.143,26.143,0,0,0,17-24.842V299.314a45.259,45.259,0,0,0,28-42.356V83a10.925,10.925,0,0,0-10.9-11H110V26a7,7,0,0,0-14,0V72H44.1A11.1,11.1,0,0,0,33,83V254.8A48.424,48.424,0,0,0,64,299.816Zm261.132-64.2c-16.547-21.168-24.937-41.253-24.937-59.7,0-12.138,3.227-23.745,8.852-31.844,6.6-9.507,16.3-14.327,28.828-14.327a37.724,37.724,0,0,1,37.672,37.69,7,7,0,0,0,14,0,37.712,37.712,0,0,1,37.68-37.659c24.467,0,37.67,23.773,37.67,46.14,0,39.588-39.749,78.609-63.214,98.189a21.291,21.291,0,0,0-3.016-3.7,23.89,23.89,0,0,0-36.066,3.142C351.087,263.943,337,250.806,325.132,235.62ZM372,287.157c0-.731.426-1.488.427-2.245a9.893,9.893,0,0,1,9.546-7.29,10.018,10.018,0,0,1,6.923,2.827,8.417,8.417,0,0,1,2.319,4.868,8.335,8.335,0,0,0-.215,1.688v25H372ZM103,370.648a7.959,7.959,0,0,1-8-7.9V345h16v17.75A7.959,7.959,0,0,1,103,370.648Zm25-51.959c0,6.673-5.086,12.311-11.228,12.311H91.518C84.873,331,78,324.787,78,318.689V302.882c1,.07,2.227.118,3.3.118h42.758a38.482,38.482,0,0,0,3.939-.188ZM156,86v94H47V86ZM47,194H156v62.958A31.99,31.99,0,0,1,124.061,289H81.3A34.327,34.327,0,0,1,47,254.8Z"
     id="path4"
     style="fill-opacity:0.94117647;fill:#00a6d2" />
</svg>
