<?xml version="1.0" encoding="UTF-8" standalone="no"?>
<!-- Created with Inkscape (http://www.inkscape.org/) -->

<svg
   xmlns:dc="http://purl.org/dc/elements/1.1/"
   xmlns:cc="http://creativecommons.org/ns#"
   xmlns:rdf="http://www.w3.org/1999/02/22-rdf-syntax-ns#"
   xmlns:svg="http://www.w3.org/2000/svg"
   xmlns="http://www.w3.org/2000/svg"
   xmlns:sodipodi="http://sodipodi.sourceforge.net/DTD/sodipodi-0.dtd"
   xmlns:inkscape="http://www.inkscape.org/namespaces/inkscape"
   version="1.1"
   id="svg2"
   xml:space="preserve"
   width="866"
   height="350.86536"
   viewBox="0 0 866 350.86536"
   sodipodi:docname="logowhite.svg"
   inkscape:version="0.92.4 (unknown)"><metadata
     id="metadata8"><rdf:RDF><cc:Work
         rdf:about=""><dc:format>image/svg+xml</dc:format><dc:type
           rdf:resource="http://purl.org/dc/dcmitype/StillImage" /><dc:title></dc:title></cc:Work></rdf:RDF></metadata><defs
     id="defs6"><clipPath
       clipPathUnits="userSpaceOnUse"
       id="clipPath18"><path
         d="M 0,497.899 H 792 V 0 H 0 Z"
         id="path16"
         inkscape:connector-curvature="0" /></clipPath><clipPath
       clipPathUnits="userSpaceOnUse"
       id="clipPath26"><path
         d="M 112.304,406.707 H 322.648 V 158.01 H 112.304 Z"
         id="path24"
         inkscape:connector-curvature="0" /></clipPath><clipPath
       clipPathUnits="userSpaceOnUse"
       id="clipPath30"><path
         d="M 309.867,200.342 249.346,163.74 127.219,365.662 187.737,402.268 Z"
         id="path28"
         inkscape:connector-curvature="0" /></clipPath><clipPath
       clipPathUnits="userSpaceOnUse"
       id="clipPath34"><path
         d="m 176.877,287.978 c 11.531,-12.718 25.49,-22.935 38.86,-33.701 v 0 c 13.371,-10.769 26.433,-22.41 35.377,-37.067 v 0 c 4.371,-7.161 7.632,-15.071 9.273,-23.313 v 0 c 1.427,-7.159 0.15,-17.778 0.56,-23.139 v 0 c 6.791,16.386 10.729,35.274 11.639,52.957 v 0 c 1.018,19.73 -2.329,39.961 -11.684,57.361 v 0 c -0.652,1.212 -1.328,2.404 -2.029,3.578 v 0 l -0.57,0.942 c -14.203,23.176 -37.81,39.257 -60.583,54.443 v 0 c -17.89,11.934 -35.787,23.867 -53.679,35.796 v 0 c -0.685,-32.017 11.321,-64.136 32.836,-87.857"
         id="path32"
         inkscape:connector-curvature="0" /></clipPath><clipPath
       clipPathUnits="userSpaceOnUse"
       id="clipPath38"><path
         d="M 112.304,406.707 H 322.648 V 158.01 H 112.304 Z"
         id="path36"
         inkscape:connector-curvature="0" /></clipPath><clipPath
       clipPathUnits="userSpaceOnUse"
       id="clipPath74"><path
         d="M 66.0029,370.768 H 310.485 V 151.956 H 66.0029 Z"
         id="path72"
         inkscape:connector-curvature="0" /></clipPath><clipPath
       clipPathUnits="userSpaceOnUse"
       id="clipPath78"><path
         d="m 300.884,210.618 -46.858,-52.979 -176.77,156.333 46.853,52.979 z"
         id="path76"
         inkscape:connector-curvature="0" /></clipPath><clipPath
       clipPathUnits="userSpaceOnUse"
       id="clipPath82"><path
         d="m 128.282,268.845 0.302,-0.267 c 5.95,-5.245 12.39,-9.935 19.232,-13.955 v 0 c 14.797,-8.702 31.169,-14.292 47.139,-20.585 v 0 c 15.973,-6.293 31.912,-13.51 44.818,-24.834 v 0 c 6.306,-5.533 11.779,-12.111 15.802,-19.49 v 0 c 3.496,-6.406 5.444,-16.924 7.433,-21.92 v 0 c 1.596,17.666 -0.276,36.868 -4.678,54.019 v 0 c -4.91,19.139 -14.135,37.45 -28.253,51.27 v 0 c -0.97,0.95 -1.957,1.874 -2.963,2.774 v 0 l -0.906,0.802 c -20.463,17.863 -47.77,26.169 -74.018,33.869 v 0 c -20.633,6.058 -41.274,12.116 -61.911,18.168 v 0 c 6.652,-23.012 20.094,-43.962 38.003,-59.851"
         id="path80"
         inkscape:connector-curvature="0" /></clipPath><clipPath
       clipPathUnits="userSpaceOnUse"
       id="clipPath86"><path
         d="M 66.0029,370.768 H 310.485 V 151.956 H 66.0029 Z"
         id="path84"
         inkscape:connector-curvature="0" /></clipPath><clipPath
       clipPathUnits="userSpaceOnUse"
       id="clipPath122"><path
         d="M 228.002,374.883 H 472.484 V 156.071 H 228.002 Z"
         id="path120"
         inkscape:connector-curvature="0" /></clipPath><clipPath
       clipPathUnits="userSpaceOnUse"
       id="clipPath126"><path
         d="m 237.604,214.733 46.857,-52.979 176.77,156.333 -46.853,52.979 z"
         id="path124"
         inkscape:connector-curvature="0" /></clipPath><clipPath
       clipPathUnits="userSpaceOnUse"
       id="clipPath130"><path
         d="m 386.297,314.644 c -26.263,-7.705 -53.59,-16.019 -74.056,-33.904 v 0 l -0.831,-0.735 c -1.018,-0.911 -2.018,-1.846 -3,-2.807 v 0 c -14.118,-13.82 -23.344,-32.131 -28.254,-51.269 v 0 c -4.401,-17.152 -6.273,-36.353 -4.677,-54.019 v 0 0 c 1.99,4.996 3.937,15.514 7.433,21.919 v 0 c 4.023,7.379 9.496,13.957 15.801,19.49 v 0 c 12.906,11.325 28.846,18.542 44.818,24.835 v 0 c 15.971,6.292 32.342,11.882 47.14,20.584 v 0 c 6.829,4.013 13.256,8.691 19.196,13.923 v 0 l 0.373,0.33 c 17.891,15.885 31.321,36.824 37.968,59.821 v 0 c -20.637,-6.054 -41.278,-12.11 -61.911,-18.168"
         id="path128"
         inkscape:connector-curvature="0" /></clipPath><clipPath
       clipPathUnits="userSpaceOnUse"
       id="clipPath134"><path
         d="M 228.002,374.883 H 472.484 V 156.071 H 228.002 Z"
         id="path132"
         inkscape:connector-curvature="0" /></clipPath><clipPath
       clipPathUnits="userSpaceOnUse"
       id="clipPath170"><path
         d="M 216.825,408.903 H 436.53 V 164.948 H 216.825 Z"
         id="path168"
         inkscape:connector-curvature="0" /></clipPath><clipPath
       clipPathUnits="userSpaceOnUse"
       id="clipPath174"><path
         d="m 228.992,211.297 57.927,-40.58 135.401,193.269 -57.922,40.584 z"
         id="path172"
         inkscape:connector-curvature="0" /></clipPath><clipPath
       clipPathUnits="userSpaceOnUse"
       id="clipPath178"><path
         d="m 350.261,343.155 c -23.688,-13.594 -48.259,-28.02 -63.99,-50.101 v 0 l -0.857,-1.223 c -0.738,-1.071 -1.455,-2.161 -2.151,-3.269 v 0 c -10.501,-16.734 -15.199,-36.691 -15.507,-56.448 v 0 c -0.278,-17.702 2.383,-36.813 8.056,-53.616 v 0 c 0.772,5.318 0.212,16.002 2.115,23.051 v 0 c 2.19,8.11 5.977,15.785 10.815,22.637 v 0 c 9.909,14.023 23.723,24.759 37.785,34.607 v 0 c 14.064,9.844 28.677,19.102 41.034,31.016 v 0 c 5.732,5.524 10.911,11.603 15.482,18.114 v 0 l 0.149,0.211 c 13.732,19.643 21.932,43.178 23.028,67.133 v 0 0 c -18.656,-10.702 -37.31,-21.41 -55.959,-32.112"
         id="path176"
         inkscape:connector-curvature="0" /></clipPath><clipPath
       clipPathUnits="userSpaceOnUse"
       id="clipPath182"><path
         d="M 216.825,408.903 H 436.53 V 164.948 H 216.825 Z"
         id="path180"
         inkscape:connector-curvature="0" /></clipPath></defs><sodipodi:namedview
     pagecolor="#ffffff"
     bordercolor="#666666"
     borderopacity="1"
     objecttolerance="10"
     gridtolerance="10"
     guidetolerance="10"
     inkscape:pageopacity="0"
     inkscape:pageshadow="2"
     inkscape:window-width="1366"
     inkscape:window-height="715"
     id="namedview4"
     showgrid="false"
     inkscape:zoom="0.30492424"
     inkscape:cx="528"
     inkscape:cy="331.93268"
     inkscape:window-x="0"
     inkscape:window-y="27"
     inkscape:window-maximized="1"
     inkscape:current-layer="g12" /><g
     id="g10"
     inkscape:groupmode="layer"
     inkscape:label="logo rymed -"
     transform="matrix(1.3333333,0,0,-1.3333333,0,350.86629)"><g
       id="g12"
       transform="translate(-12.298136,2.4596274)"><g
         id="g14"
         clip-path="url(#clipPath18)"
         style="fill:#ffffff;fill-opacity:1"
         transform="translate(-76.248449,-120.52174)"><g
           id="g20"
           style="fill:#ffffff;fill-opacity:1"><g
             id="g22"
             style="fill:#ffffff;fill-opacity:1" /><g
             id="g66"
             style="fill:#ffffff;fill-opacity:1"><g
               clip-path="url(#clipPath26)"
               id="g64"
               style="opacity:0.19999701;fill:#ffffff;fill-opacity:1"><g
                 id="g46"
                 style="fill:#ffffff;fill-opacity:1"><g
                   clip-path="url(#clipPath30)"
                   id="g44"
                   style="fill:#ffffff;fill-opacity:1"><g
                     transform="translate(272.5859,223.7148)"
                     id="g42"
                     style="fill:#ffffff;fill-opacity:1"><path
                       d="m 0,0 c 1.018,19.73 -2.328,39.961 -11.684,57.361 -13.789,25.643 -38.957,42.809 -63.182,58.963 -17.89,11.934 -35.786,23.867 -53.679,35.797 -0.684,-32.017 11.32,-64.137 32.836,-87.857 11.531,-12.719 25.49,-22.936 38.86,-33.702 13.37,-10.769 26.433,-22.41 35.377,-37.066 4.37,-7.162 7.632,-15.072 9.273,-23.314 1.427,-7.159 0.15,-17.778 0.56,-23.139 C -4.848,-36.57 -0.91,-17.684 0,0"
                       style="fill:#ffffff;fill-opacity:1;fill-rule:evenodd;stroke:none"
                       id="path40"
                       inkscape:connector-curvature="0" /></g></g></g><g
                 id="g62"
                 style="fill:#ffffff;fill-opacity:1"><g
                   clip-path="url(#clipPath34)"
                   id="g60"
                   style="fill:#ffffff;fill-opacity:1"><g
                     id="g58"
                     style="fill:#ffffff;fill-opacity:1"><g
                       id="g48"
                       style="fill:#ffffff;fill-opacity:1" /><g
                       id="g56"
                       style="fill:#ffffff;fill-opacity:1"><g
                         clip-path="url(#clipPath38)"
                         id="g54"
                         style="opacity:0.30000299;fill:#ffffff;fill-opacity:1"><g
                           transform="translate(112.3047,355.6543)"
                           id="g52"
                           style="fill:#ffffff;fill-opacity:1"><path
                             d="m 0,0 136.331,-197.645 74.013,51.051 L 74.012,51.053 Z"
                             style="fill:#ffffff;fill-opacity:1;fill-rule:nonzero;stroke:none"
                             id="path50"
                             inkscape:connector-curvature="0" /></g></g></g></g></g></g></g></g></g><g
           id="g68"
           style="fill:#ffffff;fill-opacity:1"><g
             id="g70"
             style="fill:#ffffff;fill-opacity:1" /><g
             id="g114"
             style="fill:#ffffff;fill-opacity:1"><g
               clip-path="url(#clipPath74)"
               id="g112"
               style="opacity:0.19999701;fill:#ffffff;fill-opacity:1"><g
                 id="g94"
                 style="fill:#ffffff;fill-opacity:1"><g
                   clip-path="url(#clipPath78)"
                   id="g92"
                   style="fill:#ffffff;fill-opacity:1"><g
                     transform="translate(258.3301,221.8135)"
                     id="g90"
                     style="fill:#ffffff;fill-opacity:1"><path
                       d="m 0,0 c -4.91,19.139 -14.135,37.449 -28.253,51.27 -20.808,20.365 -49.947,29.249 -77.887,37.445 -20.633,6.057 -41.274,12.115 -61.911,18.168 8.893,-30.766 29.926,-57.848 57.537,-74.073 14.797,-8.703 31.168,-14.292 47.139,-20.585 15.973,-6.293 31.912,-13.51 44.818,-24.834 6.306,-5.534 11.779,-12.112 15.802,-19.491 3.496,-6.405 5.443,-16.923 7.433,-21.92 C 6.274,-36.354 4.402,-17.151 0,0"
                       style="fill:#ffffff;fill-opacity:1;fill-rule:evenodd;stroke:none"
                       id="path88"
                       inkscape:connector-curvature="0" /></g></g></g><g
                 id="g110"
                 style="fill:#ffffff;fill-opacity:1"><g
                   clip-path="url(#clipPath82)"
                   id="g108"
                   style="fill:#ffffff;fill-opacity:1"><g
                     id="g106"
                     style="fill:#ffffff;fill-opacity:1"><g
                       id="g96"
                       style="fill:#ffffff;fill-opacity:1" /><g
                       id="g104"
                       style="fill:#ffffff;fill-opacity:1"><g
                         clip-path="url(#clipPath86)"
                         id="g102"
                         style="opacity:0.30000299;fill:#ffffff;fill-opacity:1"><g
                           transform="translate(66.0029,299.9707)"
                           id="g100"
                           style="fill:#ffffff;fill-opacity:1"><path
                             d="M 0,0 189.054,-148.015 244.481,-77.22 55.428,70.797 Z"
                             style="fill:#ffffff;fill-opacity:1;fill-rule:nonzero;stroke:none"
                             id="path98"
                             inkscape:connector-curvature="0" /></g></g></g></g></g></g></g></g></g><g
           id="g116"
           style="fill:#ffffff;fill-opacity:1"><g
             id="g118"
             style="fill:#ffffff;fill-opacity:1" /><g
             id="g162"
             style="fill:#ffffff;fill-opacity:1"><g
               clip-path="url(#clipPath122)"
               id="g160"
               style="opacity:0.19999701;fill:#ffffff;fill-opacity:1"><g
                 id="g142"
                 style="fill:#ffffff;fill-opacity:1"><g
                   clip-path="url(#clipPath126)"
                   id="g140"
                   style="fill:#ffffff;fill-opacity:1"><g
                     transform="translate(280.1562,225.9287)"
                     id="g138"
                     style="fill:#ffffff;fill-opacity:1"><path
                       d="m 0,0 c 4.91,19.139 14.136,37.449 28.254,51.27 20.807,20.365 49.947,29.249 77.887,37.445 20.633,6.057 41.274,12.115 61.911,18.168 C 159.159,76.117 138.126,49.035 110.515,32.81 95.717,24.107 79.346,18.518 63.375,12.225 47.402,5.932 31.463,-1.285 18.557,-12.609 12.252,-18.143 6.779,-24.721 2.756,-32.1 -0.74,-38.505 -2.688,-49.023 -4.677,-54.02 -6.273,-36.354 -4.401,-17.151 0,0"
                       style="fill:#ffffff;fill-opacity:1;fill-rule:evenodd;stroke:none"
                       id="path136"
                       inkscape:connector-curvature="0" /></g></g></g><g
                 id="g158"
                 style="fill:#ffffff;fill-opacity:1"><g
                   clip-path="url(#clipPath130)"
                   id="g156"
                   style="fill:#ffffff;fill-opacity:1"><g
                     id="g154"
                     style="fill:#ffffff;fill-opacity:1"><g
                       id="g144"
                       style="fill:#ffffff;fill-opacity:1" /><g
                       id="g152"
                       style="fill:#ffffff;fill-opacity:1"><g
                         clip-path="url(#clipPath134)"
                         id="g150"
                         style="opacity:0.30000299;fill:#ffffff;fill-opacity:1"><g
                           transform="translate(472.4834,304.0859)"
                           id="g148"
                           style="fill:#ffffff;fill-opacity:1"><path
                             d="M 0,0 -189.053,-148.015 -244.481,-77.22 -55.428,70.797 Z"
                             style="fill:#ffffff;fill-opacity:1;fill-rule:nonzero;stroke:none"
                             id="path146"
                             inkscape:connector-curvature="0" /></g></g></g></g></g></g></g></g></g><g
           id="g164"
           style="fill:#ffffff;fill-opacity:1"><g
             id="g166"
             style="fill:#ffffff;fill-opacity:1" /><g
             id="g210"
             style="fill:#ffffff;fill-opacity:1"><g
               clip-path="url(#clipPath170)"
               id="g208"
               style="opacity:0.19999701;fill:#ffffff;fill-opacity:1"><g
                 id="g190"
                 style="fill:#ffffff;fill-opacity:1"><g
                   clip-path="url(#clipPath174)"
                   id="g188"
                   style="fill:#ffffff;fill-opacity:1"><g
                     transform="translate(267.7559,232.1133)"
                     id="g186"
                     style="fill:#ffffff;fill-opacity:1"><path
                       d="m 0,0 c 0.309,19.758 5.006,39.715 15.508,56.449 15.479,24.658 41.74,40.098 66.997,54.592 18.649,10.703 37.304,21.41 55.96,32.113 C 137,111.162 122.867,79.92 99.805,57.695 87.448,45.781 72.836,36.523 58.771,26.68 44.709,16.832 30.895,6.096 20.986,-7.928 16.148,-14.779 12.361,-22.455 10.171,-30.564 8.268,-37.613 8.828,-48.297 8.057,-53.615 2.384,-36.813 -0.277,-17.701 0,0"
                       style="fill:#ffffff;fill-opacity:1;fill-rule:evenodd;stroke:none"
                       id="path184"
                       inkscape:connector-curvature="0" /></g></g></g><g
                 id="g206"
                 style="fill:#ffffff;fill-opacity:1"><g
                   clip-path="url(#clipPath178)"
                   id="g204"
                   style="fill:#ffffff;fill-opacity:1"><g
                     id="g202"
                     style="fill:#ffffff;fill-opacity:1"><g
                       id="g192"
                       style="fill:#ffffff;fill-opacity:1" /><g
                       id="g200"
                       style="fill:#ffffff;fill-opacity:1"><g
                         clip-path="url(#clipPath182)"
                         id="g198"
                         style="opacity:0.30000299;fill:#ffffff;fill-opacity:1"><g
                           transform="translate(436.5312,353)"
                           id="g196"
                           style="fill:#ffffff;fill-opacity:1"><path
                             d="m 0,0 -149.288,-188.051 -70.419,55.906 149.289,188.049 z"
                             style="fill:#ffffff;fill-opacity:1;fill-rule:nonzero;stroke:none"
                             id="path194"
                             inkscape:connector-curvature="0" /></g></g></g></g></g></g></g></g></g><g
           id="g212"
           transform="translate(179.4922,302.3828)"
           style="fill:#ffffff;fill-opacity:1"><path
             d="m 0,0 v -26.322 h -13.316 c -5.524,0 -10.696,-1.039 -15.532,-3.108 -4.835,-2.078 -9.074,-4.935 -12.718,-8.584 -3.659,-3.646 -6.512,-7.89 -8.58,-12.718 -2.073,-4.834 -3.11,-10.008 -3.11,-15.534 v -66.574 h -26.623 v 66.574 c 0,9.268 1.723,17.899 5.174,25.887 3.446,7.986 8.238,14.986 14.35,21.01 6.109,6.006 13.212,10.75 21.304,14.193 C -30.968,-1.729 -22.389,0 -13.316,0 Z"
             style="fill:#ffffff;fill-opacity:1;fill-rule:nonzero;stroke:none"
             id="path214"
             inkscape:connector-curvature="0" /></g><g
           id="g216"
           transform="translate(357.5996,318.9863)"
           style="fill:#ffffff;fill-opacity:1"><path
             d="M 0,0 C 4.234,-6.654 -5.731,-10.02 -9.96,-13.934 -45.482,-46.814 -74.58,-96.457 -83.601,-157.232 -86.547,-81.963 -72.788,-6.162 0,0"
             style="fill:#ffffff;fill-opacity:1;fill-rule:evenodd;stroke:none"
             id="path218"
             inkscape:connector-curvature="0" /></g><g
           id="g220"
           transform="translate(184.3584,310.7207)"
           style="fill:#ffffff;fill-opacity:1"><path
             d="M 0,0 C 0.252,0.436 1.085,0.139 1.578,0.057 57.706,-9.891 93.685,-73.709 79.694,-146.98 59.502,-92.811 44.993,-32.635 1.847,-2.027 1.055,-1.465 -0.45,-0.787 0,0"
             style="fill:#ffffff;fill-opacity:1;fill-rule:evenodd;stroke:none"
             id="path222"
             inkscape:connector-curvature="0" /></g><g
           id="g224"
           transform="translate(292.8037,327.2715)"
           style="fill:#ffffff;fill-opacity:1"><path
             d="m 0,0 c 0,-14.693 -11.907,-26.605 -26.597,-26.605 -14.694,0 -26.603,11.912 -26.603,26.605 0,14.689 11.909,26.602 26.603,26.602 C -11.907,26.602 0,14.689 0,0"
             style="fill:#ffffff;fill-opacity:1;fill-rule:evenodd;stroke:none"
             id="path226"
             inkscape:connector-curvature="0" /></g><g
           id="g228"
           transform="translate(374.6426,265.1562)"
           style="fill:#ffffff;fill-opacity:1"><path
             d="m 0,0 v -87.869 c 0,-2.447 -0.875,-4.541 -2.623,-6.285 -1.75,-1.75 -3.848,-2.621 -6.291,-2.621 -2.441,0 -4.541,0.871 -6.289,2.621 -1.748,1.744 -2.613,3.838 -2.613,6.285 V 19.564 c 0,2.444 0.865,4.538 2.613,6.286 1.748,1.748 3.848,2.623 6.289,2.623 2.443,0 4.541,-0.875 6.291,-2.623 0.289,-0.288 0.555,-0.606 0.787,-0.957 l 45.158,-40.178 46.553,41.486 0.092,-0.084 c 1.621,1.574 3.607,2.356 5.941,2.356 2.438,0 4.535,-0.875 6.28,-2.623 1.744,-1.748 2.623,-3.842 2.623,-6.286 V -87.869 c 0,-2.447 -0.879,-4.541 -2.623,-6.285 -1.745,-1.75 -3.842,-2.621 -6.28,-2.621 -2.457,0 -4.553,0.871 -6.293,2.621 -1.752,1.744 -2.625,3.838 -2.625,6.285 V 0.262 L 49.168,-33.451 c -1.686,-1.457 -3.639,-2.182 -5.846,-2.182 C 40.936,-35.633 26.482,-23.756 0,0"
             style="fill:#ffffff;fill-opacity:1;fill-rule:nonzero;stroke:none"
             id="path230"
             inkscape:connector-curvature="0" /></g><g
           id="g232"
           transform="translate(511.9902,284.7207)"
           style="fill:#ffffff;fill-opacity:1"><path
             d="m 0,0 c 0,2.443 0.879,4.537 2.617,6.283 1.754,1.75 3.848,2.625 6.295,2.625 h 69.002 c 2.445,0 4.543,-0.875 6.285,-2.625 1.744,-1.746 2.625,-3.84 2.625,-6.283 0,-2.447 -0.881,-4.541 -2.625,-6.295 -1.742,-1.738 -3.84,-2.613 -6.285,-2.613 H 17.82 v -19.74 h 26.034 c 2.439,0 4.539,-0.873 6.283,-2.623 1.75,-1.749 2.621,-3.842 2.621,-6.286 0,-2.447 -0.871,-4.541 -2.621,-6.293 -1.744,-1.74 -3.844,-2.615 -6.283,-2.615 H 17.82 v -52.06 h 60.094 c 2.445,0 4.543,-0.875 6.285,-2.623 1.744,-1.737 2.625,-3.836 2.625,-6.286 0,-2.447 -0.881,-4.541 -2.625,-6.285 -1.742,-1.75 -3.84,-2.621 -6.285,-2.621 H 8.912 c -2.447,0 -4.541,0.871 -6.295,2.621 -1.738,1.744 -2.617,3.838 -2.617,6.285 z"
             style="fill:#ffffff;fill-opacity:1;fill-rule:nonzero;stroke:none"
             id="path234"
             inkscape:connector-curvature="0" /></g><g
           id="g236"
           transform="translate(669.9707,275.8125)"
           style="fill:#ffffff;fill-opacity:1"><path
             d="M 0,0 H -25.592 V -89.617 H 0 c 12.342,0 22.898,4.383 31.66,13.144 8.76,8.766 13.137,19.323 13.137,31.664 0,12.346 -4.377,22.899 -13.137,31.663 C 22.898,-4.381 12.342,0 0,0 m -34.5,-107.432 c -2.451,0 -4.543,0.871 -6.291,2.621 -1.75,1.745 -2.625,3.838 -2.625,6.286 V 8.91 c 0,2.442 0.875,4.535 2.625,6.283 1.748,1.75 3.84,2.623 6.291,2.623 H 0 c 17.293,0 32.051,-6.109 44.281,-18.339 C 56.51,-12.754 62.625,-27.516 62.625,-44.809 62.625,-62.1 56.51,-76.861 44.281,-89.094 32.051,-101.318 17.293,-107.432 0,-107.432 Z"
             style="fill:#ffffff;fill-opacity:1;fill-rule:nonzero;stroke:none"
             id="path238"
             inkscape:connector-curvature="0" /></g><g
           id="g240"
           transform="translate(362.3496,136.4609)"
           style="fill:#ffffff;fill-opacity:1"><path
             d="m 0,0 c -1.125,0.371 -2.012,0.883 -2.662,1.535 -0.651,0.651 -0.977,1.44 -0.977,2.369 0,0.908 0.326,1.69 0.977,2.344 0.65,0.654 1.441,0.982 2.371,0.982 0.916,0 1.703,-0.328 2.365,-0.982 0.358,-0.35 0.608,-0.74 0.748,-1.172 L 2.018,4.764 C 1.898,5.086 1.705,5.377 1.437,5.646 0.963,6.123 0.387,6.359 -0.291,6.359 -0.967,6.359 -1.545,6.123 -2.025,5.646 -2.506,5.17 -2.746,4.59 -2.746,3.904 c 0,-0.675 0.238,-1.256 0.715,-1.74 0.445,-0.437 1.064,-0.84 1.851,-1.205 1.266,-0.408 2.328,-1.043 3.192,-1.908 0.908,-0.906 1.361,-2.004 1.361,-3.291 0,-1.295 -0.455,-2.399 -1.367,-3.313 -0.91,-0.918 -2.01,-1.375 -3.297,-1.375 -1.295,0 -2.397,0.461 -3.303,1.387 C -4.33,-6.814 -4.77,-5.967 -4.91,-5 l 0.836,0.301 c 0.092,-0.856 0.453,-1.598 1.095,-2.231 0.743,-0.744 1.639,-1.115 2.688,-1.115 1.049,0 1.945,0.371 2.689,1.115 0.743,0.744 1.116,1.641 1.116,2.69 0,1.041 -0.373,1.933 -1.116,2.678 C 1.742,-0.908 0.943,-0.387 0,0"
             style="fill:#ffffff;fill-opacity:1;fill-rule:nonzero;stroke:none"
             id="path242"
             inkscape:connector-curvature="0" /></g><g
           id="g244"
           transform="translate(384.5742,142.8203)"
           style="fill:#ffffff;fill-opacity:1"><path
             d="m 0,0 c -1.98,0 -3.672,-0.703 -5.078,-2.109 -1.406,-1.405 -2.109,-3.098 -2.109,-5.075 0,-1.988 0.703,-3.685 2.109,-5.089 1.406,-1.407 3.098,-2.11 5.078,-2.11 1.984,0 3.68,0.703 5.086,2.11 1.408,1.404 2.111,3.101 2.111,5.089 0,1.977 -0.703,3.67 -2.111,5.075 C 3.68,-0.703 1.984,0 0,0 m 5.729,-1.465 c 1.58,-1.582 2.373,-3.488 2.373,-5.719 0,-2.242 -0.793,-4.15 -2.373,-5.73 -1.583,-1.58 -3.491,-2.373 -5.729,-2.373 -2.232,0 -4.137,0.793 -5.719,2.373 -1.582,1.58 -2.373,3.488 -2.373,5.73 0,2.231 0.791,4.137 2.373,5.719 1.582,1.578 3.487,2.371 5.719,2.371 2.238,0 4.146,-0.793 5.729,-2.371"
             style="fill:#ffffff;fill-opacity:1;fill-rule:nonzero;stroke:none"
             id="path246"
             inkscape:connector-curvature="0" /></g><g
           id="g248"
           transform="translate(403.0703,127.7246)"
           style="fill:#ffffff;fill-opacity:1"><path
             d="M 0,0 V 15.777 H 0.893 V 0.893 H 6.908 V 0 Z"
             style="fill:#ffffff;fill-opacity:1;fill-rule:nonzero;stroke:none"
             id="path250"
             inkscape:connector-curvature="0" /></g><g
           id="g252"
           transform="translate(429.2676,143.502)"
           style="fill:#ffffff;fill-opacity:1"><path
             d="m 0,0 h 0.893 v -11.338 c -0.163,-1.205 -0.666,-2.228 -1.506,-3.068 -1.006,-1.004 -2.217,-1.504 -3.639,-1.504 -1.428,0 -2.643,0.5 -3.648,1.504 -1.002,1.006 -1.506,2.217 -1.506,3.638 V 0 h 0.892 v -10.768 c 0,-1.17 0.416,-2.168 1.25,-3.002 0.832,-0.834 1.836,-1.25 3.012,-1.25 1.176,0 2.178,0.416 3.008,1.25 0.83,0.834 1.244,1.832 1.244,3.002 z"
             style="fill:#ffffff;fill-opacity:1;fill-rule:nonzero;stroke:none"
             id="path254"
             inkscape:connector-curvature="0" /></g><g
           id="g256"
           transform="translate(453.5273,130.2344)"
           style="fill:#ffffff;fill-opacity:1"><path
             d="M 0,0 0.678,-0.604 C -0.861,-2 -2.672,-2.701 -4.754,-2.701 c -2.242,0 -4.146,0.787 -5.721,2.359 -1.574,1.576 -2.361,3.481 -2.361,5.721 0,2.225 0.787,4.127 2.361,5.707 1.575,1.58 3.479,2.371 5.721,2.371 2.082,0 3.893,-0.703 5.432,-2.109 L 0,10.744 c -1.355,1.199 -2.939,1.797 -4.754,1.797 -1.98,0 -3.672,-0.697 -5.072,-2.098 -1.403,-1.396 -2.104,-3.088 -2.104,-5.064 0,-1.986 0.701,-3.68 2.104,-5.076 1.4,-1.401 3.092,-2.1 5.072,-2.1 1.815,0 3.399,0.6 4.754,1.797"
             style="fill:#ffffff;fill-opacity:1;fill-rule:nonzero;stroke:none"
             id="path258"
             inkscape:connector-curvature="0" /></g><path
           d="m 465.607,127.725 h -0.895 v 15.777 h 0.895 z"
           style="fill:#ffffff;fill-opacity:1;fill-rule:nonzero;stroke:none"
           id="path260"
           inkscape:connector-curvature="0" /><g
           id="g262"
           transform="translate(484.207,142.8203)"
           style="fill:#ffffff;fill-opacity:1"><path
             d="m 0,0 c -1.98,0 -3.674,-0.703 -5.078,-2.109 -1.406,-1.405 -2.109,-3.098 -2.109,-5.075 0,-1.988 0.703,-3.685 2.109,-5.089 1.404,-1.407 3.098,-2.11 5.078,-2.11 1.984,0 3.68,0.703 5.086,2.11 1.406,1.404 2.109,3.101 2.109,5.089 0,1.977 -0.703,3.67 -2.109,5.075 C 3.68,-0.703 1.984,0 0,0 m 5.729,-1.465 c 1.58,-1.582 2.373,-3.488 2.373,-5.719 0,-2.242 -0.793,-4.15 -2.373,-5.73 -1.583,-1.58 -3.493,-2.373 -5.729,-2.373 -2.232,0 -4.139,0.793 -5.721,2.373 -1.58,1.58 -2.371,3.488 -2.371,5.73 0,2.231 0.791,4.137 2.371,5.719 1.582,1.578 3.489,2.371 5.721,2.371 2.236,0 4.146,-0.793 5.729,-2.371"
             style="fill:#ffffff;fill-opacity:1;fill-rule:nonzero;stroke:none"
             id="path264"
             inkscape:connector-curvature="0" /></g><g
           id="g266"
           transform="translate(503.7969,143.502)"
           style="fill:#ffffff;fill-opacity:1"><path
             d="M 0,0 10.49,-14.695 V 0 h 0.891 V -15.777 H 10.01 L -0.236,-1.428 V -15.777 H -1.127 V 0 Z"
             style="fill:#ffffff;fill-opacity:1;fill-rule:nonzero;stroke:none"
             id="path268"
             inkscape:connector-curvature="0" /></g><g
           id="g270"
           transform="translate(533.9883,143.502)"
           style="fill:#ffffff;fill-opacity:1"><path
             d="M 0,0 V -0.895 H -6.996 V -7.443 H 0 v -0.891 h -6.996 v -6.551 H 0 v -0.892 H -7.889 V 0 Z"
             style="fill:#ffffff;fill-opacity:1;fill-rule:nonzero;stroke:none"
             id="path272"
             inkscape:connector-curvature="0" /></g><g
           id="g274"
           transform="translate(549.2168,136.4609)"
           style="fill:#ffffff;fill-opacity:1"><path
             d="m 0,0 c -1.123,0.371 -2.01,0.883 -2.662,1.535 -0.652,0.651 -0.975,1.44 -0.975,2.369 0,0.908 0.323,1.69 0.975,2.344 0.652,0.654 1.441,0.982 2.373,0.982 0.912,0 1.701,-0.328 2.365,-0.982 0.358,-0.35 0.606,-0.74 0.746,-1.172 L 2.018,4.764 C 1.9,5.086 1.707,5.377 1.439,5.646 0.963,6.123 0.387,6.359 -0.289,6.359 -0.969,6.359 -1.545,6.123 -2.025,5.646 -2.506,5.17 -2.746,4.59 -2.746,3.904 c 0,-0.675 0.24,-1.256 0.715,-1.74 0.447,-0.437 1.062,-0.84 1.853,-1.205 1.264,-0.408 2.326,-1.043 3.192,-1.908 0.906,-0.906 1.359,-2.004 1.359,-3.291 0,-1.295 -0.455,-2.399 -1.367,-3.313 -0.91,-0.918 -2.01,-1.375 -3.295,-1.375 -1.295,0 -2.397,0.461 -3.305,1.387 C -4.33,-6.814 -4.77,-5.967 -4.91,-5 l 0.838,0.301 c 0.09,-0.856 0.453,-1.598 1.093,-2.231 0.745,-0.744 1.639,-1.115 2.69,-1.115 1.047,0 1.943,0.371 2.687,1.115 0.743,0.744 1.116,1.641 1.116,2.69 0,1.041 -0.373,1.933 -1.116,2.678 C 1.744,-0.908 0.943,-0.387 0,0"
             style="fill:#ffffff;fill-opacity:1;fill-rule:nonzero;stroke:none"
             id="path276"
             inkscape:connector-curvature="0" /></g><g
           id="g278"
           transform="translate(591.834,143.502)"
           style="fill:#ffffff;fill-opacity:1"><path
             d="m 0,0 v -15.777 h -0.891 v 14.818 l -5.546,-7.266 -0.559,-0.734 -0.568,0.734 -5.545,7.266 v -14.818 h -0.893 V 0 h 1.293 L -6.996,-7.477 -1.293,0 Z"
             style="fill:#ffffff;fill-opacity:1;fill-rule:nonzero;stroke:none"
             id="path280"
             inkscape:connector-curvature="0" /></g><g
           id="g282"
           transform="translate(608.6934,147.6191)"
           style="fill:#ffffff;fill-opacity:1"><path
             d="M 0,0 -2.422,-1.842 H -3.248 L -1.641,0 Z M 1.773,-4.117 V -5.01 h -6.996 v -6.551 h 6.996 v -0.89 h -6.996 v -6.551 h 6.996 v -0.893 h -7.888 v 15.778 z"
             style="fill:#ffffff;fill-opacity:1;fill-rule:nonzero;stroke:none"
             id="path284"
             inkscape:connector-curvature="0" /></g><g
           id="g286"
           transform="translate(622.3164,142.5762)"
           style="fill:#ffffff;fill-opacity:1"><path
             d="m 0,0 v -13.938 h 2.02 c 2.269,0 4.056,0.633 5.365,1.899 1.4,1.396 2.099,3.09 2.099,5.074 0,1.979 -0.699,3.672 -2.099,5.08 C 6.076,-0.629 4.289,0 2.02,0 Z M 2.029,0.926 C 4.627,0.91 6.639,0.184 8.066,-1.25 c 1.579,-1.586 2.366,-3.488 2.366,-5.715 0,-2.238 -0.787,-4.146 -2.366,-5.724 -1.427,-1.428 -3.439,-2.149 -6.037,-2.163 H -0.895 V 0.926 Z"
             style="fill:#ffffff;fill-opacity:1;fill-rule:nonzero;stroke:none"
             id="path288"
             inkscape:connector-curvature="0" /></g><path
           d="m 644.148,127.725 h -0.893 v 15.777 h 0.893 z"
           style="fill:#ffffff;fill-opacity:1;fill-rule:nonzero;stroke:none"
           id="path290"
           inkscape:connector-curvature="0" /><g
           id="g292"
           transform="translate(667.623,130.2344)"
           style="fill:#ffffff;fill-opacity:1"><path
             d="M 0,0 0.682,-0.604 C -0.859,-2 -2.67,-2.701 -4.754,-2.701 c -2.238,0 -4.144,0.787 -5.717,2.359 -1.576,1.576 -2.363,3.481 -2.363,5.721 0,2.225 0.787,4.127 2.363,5.707 1.573,1.58 3.479,2.371 5.717,2.371 2.084,0 3.895,-0.703 5.436,-2.109 L 0,10.744 c -1.354,1.199 -2.938,1.797 -4.754,1.797 -1.978,0 -3.67,-0.697 -5.07,-2.098 -1.403,-1.396 -2.104,-3.088 -2.104,-5.064 0,-1.986 0.701,-3.68 2.104,-5.076 1.4,-1.401 3.092,-2.1 5.07,-2.1 1.816,0 3.4,0.6 4.754,1.797"
             style="fill:#ffffff;fill-opacity:1;fill-rule:nonzero;stroke:none"
             id="path294"
             inkscape:connector-curvature="0" /></g><g
           id="g296"
           transform="translate(686.0859,135.5449)"
           style="fill:#ffffff;fill-opacity:1"><path
             d="M 0,0 -2.396,6.617 -4.809,0 Z M -1.939,7.957 3.783,-7.82 H 2.846 l -2.52,6.941 H -5.131 L -7.697,-7.82 h -0.949 l 5.791,15.777 z"
             style="fill:#ffffff;fill-opacity:1;fill-rule:nonzero;stroke:none"
             id="path298"
             inkscape:connector-curvature="0" /></g><g
           id="g300"
           transform="translate(704.5176,136.4609)"
           style="fill:#ffffff;fill-opacity:1"><path
             d="m 0,0 c -1.123,0.371 -2.01,0.883 -2.66,1.535 -0.653,0.651 -0.979,1.44 -0.979,2.369 0,0.908 0.326,1.69 0.979,2.344 0.65,0.654 1.439,0.982 2.373,0.982 0.912,0 1.701,-0.328 2.361,-0.982 0.36,-0.35 0.61,-0.74 0.75,-1.172 L 2.02,4.764 C 1.902,5.086 1.707,5.377 1.441,5.646 0.963,6.123 0.389,6.359 -0.287,6.359 -0.967,6.359 -1.543,6.123 -2.023,5.646 -2.504,5.17 -2.744,4.59 -2.744,3.904 c 0,-0.675 0.24,-1.256 0.713,-1.74 0.447,-0.437 1.064,-0.84 1.851,-1.205 1.268,-0.408 2.33,-1.043 3.194,-1.908 0.906,-0.906 1.361,-2.004 1.361,-3.291 0,-1.295 -0.455,-2.399 -1.367,-3.313 -0.912,-0.918 -2.012,-1.375 -3.295,-1.375 -1.297,0 -2.397,0.461 -3.305,1.387 -0.738,0.727 -1.176,1.574 -1.316,2.541 l 0.838,0.301 c 0.088,-0.856 0.451,-1.598 1.091,-2.231 0.745,-0.744 1.641,-1.115 2.692,-1.115 1.045,0 1.941,0.371 2.687,1.115 0.743,0.744 1.116,1.641 1.116,2.69 0,1.041 -0.373,1.933 -1.116,2.678 C 1.746,-0.908 0.945,-0.387 0,0"
             style="fill:#ffffff;fill-opacity:1;fill-rule:nonzero;stroke:none"
             id="path302"
             inkscape:connector-curvature="0" /></g></g></g></g></svg>